<svg width="254" height="33" viewBox="0 0 254 33" fill="none" xmlns="http://www.w3.org/2000/svg">
<path d="M15.7552 0.744812L19.2925 11.6314H30.7393L21.4786 18.3597L25.0159 29.2462L15.7552 22.518L6.49452 29.2462L10.0318 18.3597L0.771114 11.6314H12.2179L15.7552 0.744812Z" fill="#CD5928"/>
<path d="M71.2654 0.744812L74.8027 11.6314H86.2495L76.9889 18.3597L80.5261 29.2462L71.2654 22.518L62.0048 29.2462L65.542 18.3597L56.2814 11.6314H67.7282L71.2654 0.744812Z" fill="#CD5928"/>
<path d="M126.776 0.744812L130.313 11.6314H141.76L132.499 18.3597L136.036 29.2462L126.776 22.518L117.515 29.2462L121.052 18.3597L111.792 11.6314H123.238L126.776 0.744812Z" fill="#CD5928"/>
<path d="M182.286 0.744812L185.824 11.6314H197.271L188.01 18.3597L191.547 29.2462L182.286 22.518L173.026 29.2462L176.563 18.3597L167.302 11.6314H178.749L182.286 0.744812Z" fill="#CD5928"/>
<path d="M237.797 0.744812L241.334 11.6314H252.781L243.52 18.3597L247.057 29.2462L237.797 22.518L228.536 29.2462L232.073 18.3597L222.813 11.6314H234.259L237.797 0.744812Z" fill="#CD5928"/>
</svg>
