<svg width="103" height="16" viewBox="0 0 103 16" fill="none" xmlns="http://www.w3.org/2000/svg">
<path d="M7.74434 0L9.48305 5.35121H15.1096L10.5576 8.65843L12.2963 14.0096L7.74434 10.7024L3.19233 14.0096L4.93104 8.65843L0.379035 5.35121H6.00563L7.74434 0Z" fill="#CD5928"/>
<path d="M29.4475 0L31.1862 5.35121H36.8128L32.2608 8.65843L33.9995 14.0096L29.4475 10.7024L24.8955 14.0096L26.6342 8.65843L22.0822 5.35121H27.7088L29.4475 0Z" fill="#CD5928"/>
<path d="M51.1501 0L52.8888 5.35121H58.5154L53.9634 8.65843L55.7021 14.0096L51.1501 10.7024L46.5981 14.0096L48.3368 8.65843L43.7848 5.35121H49.4114L51.1501 0Z" fill="#CD5928"/>
<path d="M72.8532 0L74.5919 5.35121H80.2185L75.6665 8.65843L77.4052 14.0096L72.8532 10.7024L68.3012 14.0096L70.0399 8.65843L65.4879 5.35121H71.1145L72.8532 0Z" fill="#CD5928"/>
<path d="M94.5559 0L96.2946 5.35121H101.921L97.3692 8.65843L99.1079 14.0096L94.5559 10.7024L90.0039 14.0096L91.7426 8.65843L87.1906 5.35121H92.8171L94.5559 0Z" fill="#CD5928"/>
</svg>
