<svg width="42" height="42" viewBox="0 0 42 42" fill="none" xmlns="http://www.w3.org/2000/svg">
<rect width="42" height="42" rx="4" fill="#F5D8CC"/>
<path d="M26.2518 21.49C25.9678 23.855 24.4188 24.8 23.7498 25.486C23.0798 26.174 23.1998 26.311 23.2448 27.32C23.2523 27.4449 23.2341 27.5699 23.1915 27.6875C23.1488 27.805 23.0825 27.9126 22.9967 28.0036C22.9109 28.0946 22.8074 28.167 22.6925 28.2164C22.5776 28.2659 22.4538 28.2912 22.3288 28.291H19.6708C19.5457 28.2911 19.4219 28.2656 19.3071 28.2161C19.1922 28.1667 19.0887 28.0942 19.0028 28.0033C18.9169 27.9124 18.8506 27.8049 18.8077 27.6874C18.7649 27.5699 18.7465 27.4449 18.7538 27.32C18.7538 26.33 18.8458 26.1 18.2498 25.486C17.4898 24.726 15.7018 23.653 15.7018 20.702C15.6972 19.969 15.8445 19.243 16.1345 18.5698C16.4244 17.8966 16.8507 17.2907 17.3864 16.7904C17.9221 16.2901 18.5557 15.9061 19.2471 15.6628C19.9386 15.4195 20.673 15.3221 21.4039 15.3767C22.1349 15.4313 22.8467 15.6367 23.4943 15.9801C24.142 16.3234 24.7115 16.7972 25.1669 17.3715C25.6224 17.9459 25.9539 18.6083 26.1406 19.3172C26.3273 20.026 26.3652 20.7658 26.2518 21.49Z" stroke="#CD5928" stroke-linecap="round" stroke-linejoin="round"/>
<path d="M19.46 28.236V29.748C19.46 30.161 19.69 30.5 19.973 30.5H22.026C22.311 30.5 22.54 30.16 22.54 29.748V28.236M20.22 17.696C19.6295 17.6963 19.0633 17.931 18.6459 18.3486C18.2285 18.7663 17.994 19.3326 17.994 19.923M28.332 20.904H30.166M26.486 14.892L27.787 13.591M27.486 26L28.787 27.3M21 11.377V12.86M14.24 13.59L15.532 14.892M13.24 27.3L14.532 26M13.668 20.904H11.835" stroke="#CD5928" stroke-linecap="round" stroke-linejoin="round"/>
</svg>
