<svg width="20" height="20" viewBox="0 0 20 20" fill="none" xmlns="http://www.w3.org/2000/svg">
<path d="M10.0002 1.66675C6.3335 1.66675 3.3335 4.66675 3.3335 8.33341C3.3335 12.8334 9.16683 17.9167 9.41683 18.1667C9.5835 18.2501 9.8335 18.3334 10.0002 18.3334C10.1668 18.3334 10.4168 18.2501 10.5835 18.1667C10.8335 17.9167 16.6668 12.8334 16.6668 8.33341C16.6668 4.66675 13.6668 1.66675 10.0002 1.66675ZM10.0002 16.4167C8.25016 14.7501 5.00016 11.1667 5.00016 8.33341C5.00016 5.58341 7.25016 3.33341 10.0002 3.33341C12.7502 3.33341 15.0002 5.58341 15.0002 8.33341C15.0002 11.0834 11.7502 14.7501 10.0002 16.4167ZM10.0002 5.00008C8.16683 5.00008 6.66683 6.50008 6.66683 8.33341C6.66683 10.1667 8.16683 11.6667 10.0002 11.6667C11.8335 11.6667 13.3335 10.1667 13.3335 8.33341C13.3335 6.50008 11.8335 5.00008 10.0002 5.00008ZM10.0002 10.0001C9.0835 10.0001 8.3335 9.25008 8.3335 8.33341C8.3335 7.41675 9.0835 6.66675 10.0002 6.66675C10.9168 6.66675 11.6668 7.41675 11.6668 8.33341C11.6668 9.25008 10.9168 10.0001 10.0002 10.0001Z" fill="#404040"/>
</svg>
