<svg width="20" height="20" viewBox="0 0 20 20" fill="none" xmlns="http://www.w3.org/2000/svg">
<path d="M2.5 4.16675V3.54175C2.33424 3.54175 2.17527 3.6076 2.05806 3.72481C1.94085 3.84202 1.875 4.00099 1.875 4.16675H2.5ZM17.5 4.16675H18.125C18.125 4.00099 18.0592 3.84202 17.9419 3.72481C17.8247 3.6076 17.6658 3.54175 17.5 3.54175V4.16675ZM2.5 4.79175H17.5V3.54175H2.5V4.79175ZM16.875 4.16675V14.1667H18.125V4.16675H16.875ZM15.8333 15.2084H4.16667V16.4584H15.8333V15.2084ZM3.125 14.1667V4.16675H1.875V14.1667H3.125ZM4.16667 15.2084C3.59167 15.2084 3.125 14.7417 3.125 14.1667H1.875C1.875 14.7745 2.11644 15.3574 2.54621 15.7872C2.97598 16.217 3.55888 16.4584 4.16667 16.4584V15.2084ZM16.875 14.1667C16.875 14.7417 16.4083 15.2084 15.8333 15.2084V16.4584C16.4411 16.4584 17.024 16.217 17.4538 15.7872C17.8836 15.3574 18.125 14.7745 18.125 14.1667H16.875Z" fill="#404040"/>
<path d="M2.5 4.16675L10 11.6667L17.5 4.16675" stroke="#404040" stroke-width="1.5" stroke-linecap="round" stroke-linejoin="round"/>
</svg>
